<svg xmlns="http://www.w3.org/2000/svg" viewBox="0 0 200 200">
  <!-- Dark circle background -->
  <circle cx="100" cy="100" r="100" fill="#1a1a1a"/>

  <!-- Left letter Q dots (neon lime) -->
  <circle cx="62" cy="52" r="9" fill="#c8f000"/>
  <circle cx="45" cy="72" r="7" fill="#c8f000"/>
  <circle cx="38" cy="95" r="7" fill="#c8f000"/>
  <circle cx="42" cy="118" r="10" fill="#c8f000"/>
  <circle cx="60" cy="130" r="9" fill="#c8f000"/>
  <circle cx="75" cy="128" r="6" fill="#8ab000" opacity="0.7"/>
  <circle cx="72" cy="110" r="5" fill="#8ab000" opacity="0.7"/>
  <circle cx="86" cy="118" r="4.5" fill="#8ab000" opacity="0.6"/>
  <circle cx="96" cy="130" r="4" fill="#c8f000"/>

  <!-- Right letter R dots (neon lime) -->
  <circle cx="120" cy="52" r="8" fill="#c8f000"/>
  <circle cx="116" cy="72" r="6" fill="#8ab000" opacity="0.8"/>
  <circle cx="114" cy="92" r="5.5" fill="#8ab000" opacity="0.7"/>
  <circle cx="135" cy="58" r="6" fill="#8ab000" opacity="0.8"/>
  <circle cx="148" cy="68" r="5.5" fill="#8ab000" opacity="0.7"/>
  <circle cx="148" cy="84" r="5" fill="#8ab000" opacity="0.6"/>
  <circle cx="135" cy="92" r="5.5" fill="#8ab000" opacity="0.7"/>
  <circle cx="130" cy="108" r="5" fill="#8ab000" opacity="0.7"/>
  <circle cx="145" cy="120" r="6" fill="#c8f000"/>
  <circle cx="158" cy="132" r="5" fill="#c8f000"/>
</svg>
